<mxfile host="app.diagrams.net" modified="2024-02-19T08:15:23.972Z" agent="Mozilla/5.0 (Macintosh; Intel Mac OS X 10.15; rv:122.0) Gecko/20100101 Firefox/122.0" version="23.1.5" etag="X89Q-ivJIuv2F4-BglLD" type="github">
  <diagram name="Page-1" id="3eApgr3C7NWn7lzVvxCN">
    <mxGraphModel>
      <root>
        <mxCell id="0" />
        <mxCell id="1" parent="0" />
      </root>
    </mxGraphModel>
  </diagram>
</mxfile>
